<svg xmlns="http://www.w3.org/2000/svg" width="46.789" height="46.789" viewBox="0 0 46.789 46.789">
  <path id="Icon_awesome-clock" data-name="Icon awesome-clock" d="M23.957.563A23.395,23.395,0,1,0,47.352,23.957,23.391,23.391,0,0,0,23.957.563Zm5.386,33.026-8.32-6.047a1.139,1.139,0,0,1-.462-.915V10.75a1.135,1.135,0,0,1,1.132-1.132h4.528a1.135,1.135,0,0,1,1.132,1.132V23.74l5.99,4.358a1.131,1.131,0,0,1,.245,1.585l-2.66,3.66A1.14,1.14,0,0,1,29.344,33.589Z" transform="translate(-0.563 -0.563)" fill="#fff"/>
</svg>
